<?xml version="1.0" standalone="no"?>
<!DOCTYPE svg PUBLIC "-//W3C//DTD SVG 20010904//EN"
 "http://www.w3.org/TR/2001/REC-SVG-20010904/DTD/svg10.dtd">
<svg version="1.0" xmlns="http://www.w3.org/2000/svg"
 width="1280.000000pt" height="1280.000000pt" viewBox="0 0 1280.000000 1280.000000"
 preserveAspectRatio="xMidYMid meet">
<g transform="translate(0.000000,1280.000000) scale(0.100000,-0.100000)"
fill="#000000" stroke="none">
<path d="M12 12788 c-18 -18 -18 -12758 0 -12776 18 -18 12758 -18 12776 0 18
18 18 12758 0 12776 -18 18 -12758 18 -12776 0z m12742 -34 c15 -14 16 -605
16 -6354 0 -5749 -1 -6340 -16 -6354 -14 -15 -605 -16 -6354 -16 -5749 0
-6340 1 -6354 16 -15 14 -16 605 -16 6354 0 5749 1 6340 16 6354 14 15 605 16
6354 16 5749 0 6340 -1 6354 -16z"/>
<path d="M335 12458 c-3 -7 -4 -2738 -3 -6068 l3 -6055 6065 0 6065 0 0 6065
0 6065 -6063 3 c-4845 2 -6064 0 -6067 -10z m9383 -3163 c1 -1215 0 -2220 -3
-2233 l-5 -22 -557 2 -556 3 -293 775 c-161 426 -298 785 -303 798 -10 21 -16
22 -129 22 -135 0 -238 11 -402 41 -207 39 -424 152 -571 299 -87 86 -119 130
-202 276 -36 65 -67 156 -67 201 0 2 -494 3 -1097 3 l-1098 0 -555 -901 c-305
-496 -560 -911 -567 -924 -12 -22 -3 -28 304 -206 174 -101 323 -184 330 -184
8 0 210 326 451 725 l437 725 679 3 c374 1 684 -2 688 -6 5 -5 -104 -190 -241
-413 -137 -222 -495 -802 -795 -1289 l-546 -885 0 -973 c0 -652 -3 -980 -10
-993 -10 -19 -34 -19 -1125 -19 l-1115 0 0 -370 0 -370 1535 0 1535 0 2 985
c2 614 7 986 13 988 5 1 503 -727 1106 -1617 603 -890 1104 -1627 1113 -1637
15 -18 40 -19 483 -19 258 0 473 4 479 8 8 4 -101 179 -310 497 -1100 1680
-2051 3133 -2067 3160 l-19 31 614 979 c337 539 619 980 626 980 8 0 126 -275
289 -670 l277 -670 824 -3 c526 -1 827 -6 835 -12 9 -8 14 -335 19 -1377 3
-753 9 -1724 12 -2158 l7 -791 -394 -382 -393 -382 -453 0 c-357 0 -453 3
-453 13 0 6 133 145 295 307 197 197 290 297 282 302 -7 4 -225 8 -485 8
l-473 0 -47 -44 c-26 -24 -164 -166 -307 -315 l-260 -271 -2367 0 c-1893 0
-2368 3 -2368 13 0 6 166 179 370 382 l370 370 0 557 0 558 -450 0 -450 0 -5
23 c-3 12 -4 267 -3 567 l3 545 453 3 452 2 0 3593 c0 1977 3 3597 7 3600 3 4
1501 6 3327 5 l3321 -3 3 -2210z"/>
<path d="M7620 10745 c-246 -33 -331 -75 -516 -257 -194 -191 -244 -293 -274
-559 -19 -171 22 -400 96 -529 83 -146 224 -288 368 -372 133 -79 368 -121
551 -99 206 24 318 69 491 196 120 89 246 285 283 440 49 208 49 355 0 550
-63 251 -336 531 -582 596 -64 17 -284 51 -312 48 -5 -1 -53 -7 -105 -14z"/>
</g>
</svg>
